<svg xmlns="http://www.w3.0rg/2000/svg" version="1.1" id="no_profile" x="0px" y="0px" width="200px" height="200px"
viewBox="0 0 200 200">
<path fill="#CCCCCC" stroke="#666666" stroke-width="4" d="M159.9,132.2c-0.5-7.8-1.4-17-7.2-22.9
c-4.4-4.5-11.1-5.3-17-6.9c-5.2-1.5-10.4-2.1-15.6-3.5c-7.6-2.1-3.2-15.8,0.2-19.7c6-6.8,10-16.5,8.9-37.8
C128.6,28.3,123,15.2,100,15c-23.6,0.2-28.8,13.3-29.4,26.4C69.7,62,74,72.7,79.5,79.2c3.3,3.9,7.8,17.6,0.1,19.7
c-5.2,1.4-10.4,2-15.6,3.5c-5.8,1.7-12.5,2.4-17,6.9c-5.8,5.9-6.7,15.1-7.2,22.9c-1.1,19.2-8.7,48,4.8,63.8c3.4,4,17.9,4,25.3,4
c5.1,0,17.6,0,30,0c12,0,24.7,0,29.8,0c7.5,0,22,0,25.3-4C168.5,180.2,161,151.4,159.9,132.2z"/>
<path fill="none" stroke="#666666" stroke-width="4" stroke-miterlimit="10" d="M54.3,163c-0.7,4.7-3.3,9.3,3.3,14s18.7,3.3,16,4
s10.3-8.6,7-13.7c-2-3-9-7.3-17-10.3C59.3,155.4,54.6,161.3,54.3,163z"/>
<path fill="none" stroke="#666666" stroke-width="4" stroke-miterlimit="10" d="M133.3,151.3c-4,5-13,13.3-14.7,17.3
s15.7,2.7,18,1.7c1.8-0.8,7.2-4.6,11.7-8.3c2-1.7,4.7-3,3.3-8.7s-6-6.7-8.7-6S133.3,151.3,133.3,151.3z"/>
<path fill="none" stroke="#666666" stroke-width="4" stroke-linecap="round" stroke-miterlimit="10" d="M59.3,141c0,5,3,12.7,3,15.7
"/>
<path fill="none" stroke="#666666" stroke-width="4" stroke-linecap="round" stroke-miterlimit="10" d="M135.7,140
c-2.3,6.3-3.7,7.3-5.3,13.7"/>
<path fill="none" stroke="#666666" stroke-width="4" stroke-miterlimit="10" d="M83,168.3c-3.3-0.3,33.7,4.7,37.7,0.7"/>
<path fill="none" stroke="#666666" stroke-width="4" stroke-miterlimit="10" d="M71.7,180.7c3.7,3,35.3,12.7,45.7,15
s13.3,3.7,19.7,4.3"/>
<path fill="none" stroke="#666666" stroke-width="4" stroke-miterlimit="10" d="M119.7,80c-5.2,6.2-12.3,10-20.2,10
c-7.1,0-14.4-2.7-18.8-8.5"/>
</svg>
