<?xml version="1.0" encoding="utf-8"?>
<!-- Generator: Adobe Illustrator 16.0.0, SVG Export Plug-In . SVG Version: 6.00 Build 0)  -->
<!DOCTYPE svg PUBLIC "-//W3C//DTD SVG 1.1//EN" "http://www.w3.org/Graphics/SVG/1.1/DTD/svg11.dtd">
<svg version="1.1" id="Layer_1" xmlns="http://www.w3.org/2000/svg" xmlns:xlink="http://www.w3.org/1999/xlink" x="0px" y="0px"
	 width="200px" height="250px" viewBox="0 0 200 250" enable-background="new 0 0 200 250" xml:space="preserve">
<path fill="#B3B3B3" stroke="#666666" stroke-width="4" stroke-miterlimit="10" d="M155.6,248c10.9-18.3,5.9-97.7,4.8-116.8
	c-0.5-7.8-1.4-17-7.2-22.9c-4.4-4.5-11.1-5.2-17-6.9c-5.2-1.5-10.4-2.1-15.6-3.5c-7.6-2.1-2.3-15.2,0.2-19.7
	c7.7-14.2,10.4-26.8,8.9-41.8c-1.2-13-6.3-26.2-29.3-26.4c-23.6,0.2-27.8,13.4-29.4,26.4c-1.9,15.9,1.4,27.9,8.9,41.8
	c2.4,4.5,7.8,17.6,0.1,19.7c-5.2,1.4-10.4,2-15.6,3.5c-5.8,1.7-12.5,2.4-17,6.9c-5.8,5.9-6.7,15.1-7.2,22.9
	c-1.1,19.2-4.9,97.2,4.8,116.8H155.6z"/>
</svg>
