<?xml version="1.0" encoding="utf-8"?>
<!-- Generator: Adobe Illustrator 16.0.0, SVG Export Plug-In . SVG Version: 6.00 Build 0)  -->
<!DOCTYPE svg PUBLIC "-//W3C//DTD SVG 1.1//EN" "http://www.w3.org/Graphics/SVG/1.1/DTD/svg11.dtd">
<svg version="1.1" id="Layer_1" xmlns="http://www.w3.org/2000/svg" xmlns:xlink="http://www.w3.org/1999/xlink" x="0px" y="0px"
	 width="200px" height="200px" viewBox="0 0 200 200" enable-background="new 0 0 200 200" xml:space="preserve">
<path fill="#B3B3B3" stroke="#666666" stroke-width="4" stroke-miterlimit="10" d="M159.9,132.2c-0.5-7.8-1.4-17-7.2-22.9
	c-4.4-4.5-11.1-5.3-17-6.9c-5.2-1.5-10.4-2.1-15.6-3.5c-7.6-2.1-2.3-15.2,0.2-19.7c7.7-14.2,10.4-26.8,8.9-41.8
	C128,24.4,123,11.2,100,11c-23.6,0.2-27.8,13.4-29.4,26.4c-1.9,15.9,1.4,27.9,8.9,41.8c2.4,4.5,7.8,17.6,0.1,19.7
	c-5.2,1.4-10.4,2-15.6,3.5c-5.8,1.7-12.5,2.4-17,6.9c-5.8,5.9-6.7,15.1-7.2,22.9c-1.1,19.2-8.7,48,4.8,63.8c3.4,4,17.9,4,25.3,4
	c5.1,0,17.6,0,30,0c12,0,24.7,0,29.8,0c7.5,0,22,0,25.3-4C168.5,180.2,161,151.4,159.9,132.2z"/>
</svg>
